<svg xmlns="http://www.w3.org/2000/svg" viewBox="0 0 1200 350">
  <path fill="#253B80" d="M124.1 160.1H54.4c-4.8 0-8.9 3.5-9.6 8.2L20.6 313.8c-.6 3.5 2.2 6.6 5.8 6.6h31.9c4.8 0 8.9-3.5 9.6-8.2l6.5-41.1c.8-4.7 4.8-8.2 9.6-8.2h22c46.2 0 72.9-22.4 80-66.7 3.2-19.3 0-34.5-9.1-45.2-10.1-11.7-28-17.9-52.8-17.9zm8.3 65.7c-3.8 25.3-23.1 25.3-41.8 25.3h-10.6l7.4-47c.4-2.8 2.9-4.9 5.8-4.9h4.9c12.7 0 24.7 0 30.9 7.2 3.7 4.3 4.8 10.7 3.4 19.4zm173.9-65.7h-31.9c-2.9 0-5.3 2.1-5.8 4.9l-13.2 83.6-19-82.7c-1-4.3-4.8-7.3-9.3-7.3h-29.8c-5.3 0-9 5.2-7.3 10.2l35.8 105.1-33.7 47.7c-2.8 3.9.4 9.2 5.1 9.2h31.9c2.8 0 5.4-1.3 7.1-3.5l108.2-156.4c2.7-3.9-.5-9-5.1-9z"/>
  <path fill="#179BD7" d="M397.8 160.1h-31.9c-2.9 0-5.3 2.1-5.8 4.9l-13.2 83.6-19-82.7c-1-4.3-4.8-7.3-9.3-7.3h-29.8c-5.3 0-9 5.2-7.3 10.2l35.8 105.1-33.7 47.7c-2.8 3.9.4 9.2 5.1 9.2h31.9c2.8 0 5.4-1.3 7.1-3.5l108.2-156.4c2.7-4 -.5-9.1-5.1-9.1z"/>
  <path fill="#253B80" d="M664.6 229.5c-3.8 25.3-23.1 25.3-41.8 25.3h-10.6l7.4-47c.4-2.8 2.9-4.9 5.8-4.9h4.9c12.7 0 24.7 0 30.9 7.2 3.7 4.3 4.8 10.6 3.4 19.4zm-41.8-69.4h-31.9c-4.8 0-8.9 3.5-9.6 8.2l-24.2 153.5c-.6 3.5 2.2 6.6 5.8 6.6h31.1c4.8 0 8.9-3.5 9.6-8.2l6.5-41.1c.8-4.7 4.8-8.2 9.6-8.2h22c46.2 0 72.9-22.4 80-66.7 3.2-19.3 0-34.5-9.1-45.2-10.1-11.7-28-18-52.8-18zm-7.5 65.7c-3.8 25.3-23.1 25.3-41.8 25.3h-10.6l7.4-47c.4-2.8 2.9-4.9 5.8-4.9h4.9c12.7 0 24.7 0 30.9 7.2 3.7 4.4 4.8 10.7 3.4 19.4z"/>
  <path fill="#179BD7" d="M665.9 229.5c-3.8 25.3-23.1 25.3-41.8 25.3h-10.6l7.4-47c.4-2.8 2.9-4.9 5.8-4.9h4.9c12.7 0 24.7 0 30.9 7.2 3.7 4.3 4.8 10.6 3.4 19.4zm-41.8-69.4h-31.9c-4.8 0-8.9 3.5-9.6 8.2l-24.2 153.5c-.6 3.5 2.2 6.6 5.8 6.6h31.1c4.8 0 8.9-3.5 9.6-8.2l6.5-41.1c.8-4.7 4.8-8.2 9.6-8.2h22c46.2 0 72.9-22.4 80-66.7 3.2-19.3 0-34.5-9.1-45.2-10.1-11.7-28-18-52.8-18z"/>
</svg>
